<svg width="647" height="440" viewBox="0 0 647 440" fill="none" xmlns="http://www.w3.org/2000/svg">
<g clip-path="url(#clip0)">
<path d="M95.9171 311.903C95.3863 311.147 94.6857 310.51 93.8647 310.037C93.0437 309.563 92.1224 309.264 91.1654 309.162C90.2085 309.059 89.2393 309.156 88.3262 309.443C87.413 309.731 86.5781 310.204 85.8802 310.829L65.0769 300.729L66.3701 312.107L85.9271 319.953C87.1198 320.987 88.674 321.573 90.2953 321.6C91.9165 321.627 93.4921 321.094 94.7235 320.102C95.9549 319.11 96.7566 317.727 96.9765 316.216C97.1965 314.705 96.8196 313.17 95.9171 311.903H95.9171Z" fill="#A0616A"/>
<path d="M77.4289 316.483C77.0525 316.646 76.644 316.732 76.2298 316.736C75.8157 316.74 75.4053 316.662 75.0253 316.507L55.2651 308.445C48.5086 305.689 43.0463 300.718 39.8944 294.458L29.5059 273.832C28.7393 272.906 28.1743 271.846 27.8432 270.714C27.5122 269.582 27.4217 268.4 27.5768 267.235C27.7319 266.07 28.1296 264.945 28.7472 263.925C29.3648 262.905 30.1901 262.009 31.176 261.289C32.1619 260.569 33.289 260.039 34.4929 259.729C35.6967 259.419 36.9538 259.335 38.192 259.483C39.4303 259.63 40.6256 260.005 41.7095 260.588C42.7934 261.17 43.7447 261.947 44.509 262.875L62.7693 294.742L79.6303 306.723C80.1129 307.067 80.4714 307.543 80.6573 308.085C80.8432 308.628 80.8475 309.211 80.6697 309.755L79.0148 314.783C78.8371 315.322 78.4888 315.798 78.0165 316.146C77.8355 316.28 77.6383 316.393 77.4289 316.483Z" fill="#CCCCCC"/>
<path d="M29.049 249.575C37.9356 249.575 45.1397 242.799 45.1397 234.44C45.1397 226.081 37.9356 219.305 29.049 219.305C20.1623 219.305 12.9583 226.081 12.9583 234.44C12.9583 242.799 20.1623 249.575 29.049 249.575Z" fill="#A0616A"/>
<path d="M35.5664 432.985L43.5977 432.984L47.4191 403.844L35.5645 403.845L35.5664 432.985Z" fill="#A0616A"/>
<path d="M59.0881 439.999L33.8454 440L33.845 430.826L49.3348 430.826C51.9214 430.826 54.4022 431.792 56.2313 433.512C58.0604 435.233 59.088 437.566 59.0881 439.999L59.0881 439.999Z" fill="#2F2E41"/>
<path d="M9.3611 432.985L17.3924 432.984L21.2137 403.844L9.35913 403.845L9.3611 432.985Z" fill="#A0616A"/>
<path d="M32.8828 439.999L7.64009 440L7.63964 430.826L23.1295 430.826C25.7161 430.826 28.1968 431.792 30.0259 433.512C31.855 435.233 32.8827 437.566 32.8828 439.999L32.8828 439.999Z" fill="#2F2E41"/>
<path d="M6.5563 424.644C6.27956 424.347 6.07355 423.997 5.95209 423.619C5.83063 423.241 5.79651 422.843 5.85203 422.451L19.9142 323.248L54.8515 328.829L58.5801 326.725L48.9382 420.849C48.858 421.485 48.5472 422.074 48.0584 422.519C47.5695 422.964 46.9325 423.237 46.2547 423.292L35.6758 424.121C35.2552 424.154 34.832 424.102 34.4347 423.968C34.0375 423.834 33.6755 423.621 33.3732 423.344C33.0709 423.067 32.8354 422.732 32.6826 422.362C32.5299 421.992 32.4633 421.595 32.4876 421.199L35.2265 376.373C35.2313 376.297 35.2059 376.222 35.1553 376.162C35.1046 376.103 35.0323 376.063 34.9522 376.051C34.8722 376.039 34.7901 376.055 34.7219 376.096C34.6538 376.137 34.6043 376.201 34.5832 376.275L21.033 423.539C20.8636 424.127 20.4931 424.647 19.9788 425.018C19.4644 425.388 18.8347 425.59 18.1867 425.591H8.77442C8.35433 425.591 7.93908 425.506 7.55653 425.343C7.17397 425.18 6.83294 424.941 6.5563 424.644Z" fill="#2F2E41"/>
<path d="M30.7521 330.192C30.3511 329.851 29.8356 329.652 29.2951 329.631C28.7546 329.61 28.2233 329.767 27.7935 330.076L20.8085 335.186C20.4284 335.465 19.9813 335.652 19.5065 335.731C19.0317 335.809 18.5437 335.777 18.0853 335.636C17.6269 335.496 17.2122 335.252 16.8774 334.926C16.5426 334.599 16.2981 334.201 16.1653 333.765C12.7392 322.479 4.97675 294.069 6.88904 274.074C7.97299 262.74 18.3782 254.126 30.084 254.849C38.0868 255.351 43.3517 259.693 45.7325 267.755C51.578 287.549 58.002 323.858 59.2303 330.937C59.3273 331.486 59.2455 332.05 58.9958 332.554C58.746 333.059 58.3399 333.481 57.8307 333.764C54.5258 335.631 50.7498 336.63 46.8953 336.659C42.2313 336.659 36.639 335.132 30.7521 330.192Z" fill="#CCCCCC"/>
<path d="M33.3875 337.233C33.4657 336.331 33.3325 335.422 32.9973 334.573C32.662 333.724 32.1329 332.954 31.4471 332.318C30.7614 331.682 29.9357 331.195 29.0283 330.892C28.1208 330.588 27.1537 330.476 26.1949 330.562L16.4519 310.539L10.0044 320.243L20.245 337.769C20.5056 339.274 21.3442 340.637 22.602 341.6C23.8597 342.563 25.4491 343.058 27.0691 342.992C28.6891 342.926 30.2271 342.303 31.3916 341.242C32.5561 340.181 33.2663 338.754 33.3875 337.233Z" fill="#A0616A"/>
<path d="M15.8352 330.106C15.4324 330.015 15.0545 329.845 14.7259 329.608C14.3973 329.371 14.1254 329.072 13.928 328.729L3.66915 310.915C0.160778 304.824 -0.876249 297.743 0.750967 290.987L6.10894 268.727C6.1138 267.553 6.36457 266.392 6.84692 265.309C7.32927 264.226 8.03374 263.244 8.92006 262.417C9.80637 261.591 10.8572 260.937 12.0123 260.493C13.1675 260.049 14.4044 259.823 15.6524 259.829C16.9003 259.835 18.1349 260.072 19.2854 260.526C20.4359 260.981 21.4798 261.645 22.3575 262.479C23.2352 263.314 23.9294 264.303 24.4005 265.39C24.8716 266.477 25.1103 267.64 25.103 268.814L18.5638 304.489L23.971 323.703C24.1248 324.254 24.0948 324.837 23.8853 325.371C23.6757 325.906 23.2966 326.367 22.7993 326.693L18.1983 329.689C17.7047 330.01 17.1188 330.181 16.5187 330.181C16.2885 330.182 16.059 330.156 15.8352 330.106Z" fill="#CCCCCC"/>
<path opacity="0.2" d="M23.7978 283.859L17.9016 307.276L26.4183 326.995L20.5221 307.892L23.7978 283.859Z" fill="black"/>
<path d="M19.8667 246.886C18.4353 246.911 17.013 246.669 15.6817 246.174C15.0959 245.961 14.4879 245.787 13.9032 245.574C8.73964 243.698 5.33821 238.525 5.21639 233.32C5.09456 228.114 7.96052 223.062 12.2162 219.732C16.4719 216.403 21.9842 214.693 27.5037 214.298C33.4492 213.872 40.144 215.29 43.4663 219.948C44.3506 221.187 44.9691 222.691 44.445 224.188C44.2881 224.64 44.0078 225.045 43.6322 225.363C42.1485 226.604 40.6693 225.671 39.1568 225.588C37.0779 225.475 35.2107 227.058 34.5396 228.912C33.8685 230.766 34.1639 232.807 34.7058 234.699C35.1186 235.837 35.3789 237.019 35.4805 238.217C35.5242 238.818 35.4041 239.42 35.1314 239.965C34.8586 240.51 34.4425 240.981 33.9222 241.332C32.6232 242.071 30.9172 241.643 29.6173 240.906C28.3175 240.168 27.1944 239.143 25.7904 238.6C24.3863 238.058 22.5 238.178 21.6828 239.381C21.4231 239.819 21.2473 240.297 21.1635 240.792C20.4309 243.931 20.5993 243.746 19.8666 246.886L19.8667 246.886Z" fill="#2F2E41"/>
<path d="M496.154 142.027H98.4885C96.9738 142.028 95.5215 142.595 94.4504 143.602C93.3793 144.61 92.777 145.976 92.7756 147.4V400.865C92.777 402.29 93.3793 403.656 94.4504 404.663C95.5215 405.671 96.9738 406.237 98.4885 406.239H496.154C496.98 406.239 497.796 406.07 498.546 405.744C499.295 405.419 499.961 404.944 500.497 404.353C500.542 404.307 500.584 404.257 500.622 404.205C500.963 403.813 501.239 403.374 501.44 402.905C501.728 402.259 501.875 401.565 501.873 400.865V243.081H500.242V400.865C500.242 401.615 500.007 402.348 499.567 402.973C499.175 403.522 498.644 403.971 498.021 404.279C497.444 404.559 496.803 404.705 496.154 404.704H98.4885C97.4064 404.703 96.369 404.298 95.6038 403.578C94.8386 402.859 94.4081 401.883 94.4067 400.865V147.4C94.4081 146.383 94.8385 145.407 95.6038 144.687C96.369 143.967 97.4064 143.563 98.4885 143.561H496.154C497.237 143.561 498.276 143.966 499.042 144.685C499.809 145.405 500.24 146.382 500.242 147.4V181.459H501.873V147.4C501.871 145.975 501.268 144.608 500.195 143.6C499.123 142.593 497.669 142.027 496.154 142.027Z" fill="#80967E" fill-opacity="0.5"/>
<path d="M501.053 163.566H93.5889V165.102H501.053V163.566Z" fill="#80967E" fill-opacity="0.5"/>
<path d="M107.47 158.159C110.176 158.159 112.37 156.095 112.37 153.55C112.37 151.005 110.176 148.942 107.47 148.942C104.765 148.942 102.571 151.005 102.571 153.55C102.571 156.095 104.765 158.159 107.47 158.159Z" fill="#CCCCCC"/>
<path d="M121.556 158.159C124.262 158.159 126.455 156.095 126.455 153.55C126.455 151.005 124.262 148.942 121.556 148.942C118.85 148.942 116.657 151.005 116.657 153.55C116.657 156.095 118.85 158.159 121.556 158.159Z" fill="#CCCCCC"/>
<path d="M135.642 158.159C138.348 158.159 140.541 156.095 140.541 153.55C140.541 151.005 138.348 148.942 135.642 148.942C132.936 148.942 130.742 151.005 130.742 153.55C130.742 156.095 132.936 158.159 135.642 158.159Z" fill="#CCCCCC"/>
<path d="M234.05 375.171C232.364 375.164 230.706 374.761 229.226 373.999C227.747 373.237 226.493 372.14 225.578 370.807C224.663 369.475 224.116 367.948 223.986 366.367C223.856 364.785 224.148 363.198 224.835 361.749L236.507 337.254C227.314 329.606 219.958 320.205 214.927 309.677C209.895 299.148 207.305 287.732 207.326 276.189C207.326 231.091 246.333 194.4 294.28 194.4C342.227 194.4 381.234 231.091 381.234 276.189C381.234 321.287 342.227 357.978 294.28 357.978C285.892 357.97 277.551 356.815 269.517 354.547L239.729 373.516C238.055 374.591 236.076 375.167 234.05 375.171ZM294.28 205.812C278.762 205.804 263.627 210.336 250.97 218.781C238.314 227.227 228.765 239.166 223.645 252.945C218.526 266.724 218.091 281.659 222.401 295.681C226.71 309.703 235.55 322.116 247.696 331.201L251.373 333.959L238.814 360.317L267.634 341.965L270.48 342.864C280.76 346.112 291.668 347.219 302.448 346.108C313.228 344.997 323.623 341.694 332.911 336.429C342.199 331.164 350.159 324.061 356.239 315.615C362.319 307.168 366.374 297.579 368.122 287.512C369.87 277.444 369.27 267.14 366.364 257.313C363.457 247.485 358.314 238.37 351.289 230.598C344.265 222.826 335.528 216.584 325.684 212.304C315.84 208.025 305.125 205.809 294.28 205.812Z" fill="#3F3D56"/>
<path d="M294.28 283.797C300.981 283.797 306.413 278.688 306.413 272.385C306.413 266.082 300.981 260.972 294.28 260.972C287.579 260.972 282.147 266.082 282.147 272.385C282.147 278.688 287.579 283.797 294.28 283.797Z" fill="#3F3D56"/>
<path d="M259.903 283.797C266.604 283.797 272.036 278.688 272.036 272.385C272.036 266.082 266.604 260.972 259.903 260.972C253.202 260.972 247.77 266.082 247.77 272.385C247.77 278.688 253.202 283.797 259.903 283.797Z" fill="#3F3D56"/>
<path d="M328.657 283.797C335.358 283.797 340.79 278.688 340.79 272.385C340.79 266.082 335.358 260.972 328.657 260.972C321.956 260.972 316.524 266.082 316.524 272.385C316.524 278.688 321.956 283.797 328.657 283.797Z" fill="#3F3D56"/>
<path d="M599.388 227.215H484.085C482.695 227.215 481.362 226.695 480.379 225.771C479.396 224.846 478.844 223.592 478.844 222.285C478.844 220.977 479.396 219.724 480.379 218.799C481.362 217.875 482.695 217.355 484.085 217.355H599.388C600.778 217.355 602.111 217.875 603.094 218.799C604.077 219.724 604.629 220.977 604.629 222.285C604.629 223.592 604.077 224.846 603.094 225.771C602.111 226.695 600.778 227.215 599.388 227.215Z" fill="#CCCCCC"/>
<path d="M524.048 206.263H484.085C482.695 206.263 481.362 205.744 480.379 204.819C479.396 203.895 478.844 202.641 478.844 201.333C478.844 200.026 479.396 198.772 480.379 197.848C481.362 196.923 482.695 196.404 484.085 196.404H524.048C525.438 196.404 526.771 196.923 527.754 197.848C528.737 198.772 529.289 200.026 529.289 201.333C529.289 202.641 528.737 203.895 527.754 204.819C526.771 205.744 525.438 206.263 524.048 206.263Z" fill="#CCCCCC"/>
<path d="M431.86 233.222C444.162 233.222 454.135 223.841 454.135 212.27C454.135 200.699 444.162 191.319 431.86 191.319C419.558 191.319 409.586 200.699 409.586 212.27C409.586 223.841 419.558 233.222 431.86 233.222Z" fill="#80967E"/>
<path d="M610.946 180.227H403.269C400.316 180.231 397.486 181.335 395.398 183.299C393.311 185.263 392.136 187.925 392.132 190.702V233.838C392.136 236.615 393.311 239.277 395.398 241.241C397.486 243.205 400.316 244.31 403.269 244.314H610.946C613.898 244.31 616.729 243.205 618.816 241.241C620.904 239.277 622.079 236.615 622.083 233.838V190.702C622.079 187.925 620.904 185.263 618.816 183.299C616.729 181.335 613.898 180.231 610.946 180.227ZM620.773 233.838C620.77 236.289 619.733 238.638 617.891 240.371C616.049 242.103 613.551 243.078 610.946 243.081H403.269C400.664 243.078 398.166 242.103 396.324 240.371C394.482 238.638 393.445 236.289 393.442 233.838V190.702C393.445 188.252 394.482 185.902 396.324 184.17C398.166 182.437 400.664 181.462 403.269 181.459H610.946C613.551 181.462 616.049 182.437 617.891 184.17C619.733 185.902 620.77 188.252 620.773 190.702V233.838Z" fill="#80967E" fill-opacity="0.5"/>
<path d="M620.773 197.481C629.095 197.481 635.841 191.135 635.841 183.308C635.841 175.48 629.095 169.135 620.773 169.135C612.451 169.135 605.705 175.48 605.705 183.308C605.705 191.135 612.451 197.481 620.773 197.481Z" fill="#80967E"/>
<path d="M620.31 191.279C620.249 191.221 620.2 191.153 620.167 191.079C620.134 191.004 620.118 190.924 620.118 190.843V175.156C620.118 174.993 620.187 174.836 620.31 174.721C620.432 174.605 620.599 174.54 620.773 174.54C620.946 174.54 621.113 174.605 621.236 174.721C621.359 174.836 621.428 174.993 621.428 175.156V190.843C621.428 190.965 621.389 191.084 621.317 191.185C621.245 191.286 621.143 191.365 621.023 191.412C620.904 191.459 620.772 191.471 620.645 191.447C620.518 191.423 620.401 191.365 620.31 191.279Z" fill="white"/>
<path d="M611.971 183.435C611.88 183.349 611.817 183.239 611.792 183.12C611.767 183 611.78 182.876 611.829 182.764C611.879 182.651 611.963 182.555 612.07 182.487C612.178 182.42 612.305 182.383 612.434 182.383H629.111C629.285 182.383 629.452 182.448 629.575 182.564C629.697 182.679 629.766 182.836 629.766 183C629.766 183.163 629.697 183.32 629.575 183.435C629.452 183.551 629.285 183.616 629.111 183.616H612.434C612.348 183.616 612.263 183.6 612.184 183.569C612.104 183.538 612.032 183.493 611.971 183.435Z" fill="white"/>
<path d="M638.811 371.691H607.358C607.358 372.541 574.942 373.231 574.942 373.231C574.433 373.592 573.97 374.005 573.56 374.464C572.329 375.845 571.656 377.591 571.66 379.394V380.626C571.661 382.669 572.524 384.628 574.059 386.072C575.595 387.516 577.677 388.328 579.849 388.329H638.811C640.982 388.327 643.064 387.515 644.599 386.071C646.135 384.627 646.998 382.668 647 380.626V379.394C646.997 377.352 646.133 375.394 644.598 373.95C643.063 372.506 640.982 371.694 638.811 371.691Z" fill="#3F3D56"/>
<path d="M613.913 388.023H605.396V439.786H613.913V388.023Z" fill="#3F3D56"/>
<path d="M638.153 439.504C638.153 440.37 625.247 439.839 609.327 439.839C593.407 439.839 580.501 440.37 580.501 439.504C580.501 438.639 593.407 431.775 609.327 431.775C625.247 431.775 638.153 438.639 638.153 439.504Z" fill="#3F3D56"/>
<path d="M612.387 302.324C622.518 302.324 630.73 294.599 630.73 285.07C630.73 275.541 622.518 267.816 612.387 267.816C602.256 267.816 594.043 275.541 594.043 285.07C594.043 294.599 602.256 302.324 612.387 302.324Z" fill="#2F2E41"/>
<path d="M566.737 432.696L558.705 432.695L554.884 403.555L566.738 403.556L566.737 432.696Z" fill="#FFB8B8"/>
<path d="M552.968 430.537H568.458V439.711H543.215C543.215 437.278 544.243 434.944 546.072 433.224C547.901 431.503 550.381 430.537 552.968 430.537Z" fill="#2F2E41"/>
<path d="M554.199 428.479L546.536 426.217L552.165 397.338L563.475 400.676L554.199 428.479Z" fill="#FFB8B8"/>
<path d="M541.749 422.542L556.528 426.905L553.608 435.657L529.524 428.548C530.298 426.227 532.021 424.29 534.314 423.164C536.607 422.037 539.281 421.814 541.749 422.542Z" fill="#2F2E41"/>
<path d="M617.301 366.64C617.115 365.171 616.782 363.723 616.305 362.314L614.804 360.539L610.9 355.93L610.73 355.936C610.441 355.948 609.242 356.01 607.388 356.145H607.369C606.222 356.232 604.82 356.342 603.228 356.484C602.809 356.527 602.37 356.564 601.918 356.607V363.041H610.107C610.505 363.041 610.889 363.178 611.188 363.425C611.487 363.672 611.68 364.013 611.732 364.384C611.738 364.452 611.745 364.514 611.745 364.581C611.745 364.99 611.572 365.382 611.265 365.671C610.958 365.959 610.541 366.122 610.107 366.122H562.544C561.938 366.5 561.356 366.912 560.802 367.354C559.126 368.574 557.919 370.275 557.362 372.198C554.585 383.684 549.52 405.104 548.027 411.396C547.918 411.87 547.943 412.362 548.098 412.825C548.253 413.287 548.533 413.703 548.911 414.033C549.19 414.278 549.517 414.468 549.874 414.594L555.784 416.677C556.026 416.761 556.279 416.817 556.537 416.843C556.57 416.843 556.596 416.849 556.629 416.849C556.69 416.855 556.751 416.857 556.812 416.856C557.41 416.853 557.992 416.682 558.484 416.363C558.977 416.044 559.355 415.593 559.57 415.068L564.235 403.557L571.422 385.81L574.265 378.791C577.56 379.519 605.207 385.274 614.464 376C615.377 375.086 616.097 374.018 616.587 372.851C617.366 370.868 617.611 368.734 617.301 366.64Z" fill="#2F2E41"/>
<path d="M625.319 368.316C625.175 367.767 625.011 367.2 624.821 366.627L619.416 360.243L619.246 360.249C618.905 360.268 617.287 360.348 614.804 360.539C611.987 360.761 608.05 361.118 603.628 361.679C603.497 361.691 603.359 361.71 603.228 361.728C602.796 361.784 602.357 361.839 601.918 361.901V363.041H610.107C610.505 363.041 610.889 363.178 611.188 363.425C611.487 363.672 611.68 364.013 611.732 364.384C611.738 364.452 611.745 364.514 611.745 364.581C611.745 364.99 611.572 365.382 611.265 365.671C610.958 365.959 610.541 366.122 610.107 366.122H581.163C579.899 366.51 578.68 366.917 577.514 367.354C571.395 369.634 566.816 372.623 565.879 376.511C565.564 377.818 565.217 379.254 564.851 380.782C563.488 386.463 561.83 393.421 560.33 399.743V399.749C560.022 401.056 559.714 402.325 559.419 403.557C558.168 408.857 557.107 413.349 556.543 415.709C556.53 415.777 556.517 415.839 556.504 415.907V415.919C556.439 416.396 556.502 416.881 556.688 417.33L556.694 417.336V417.342C556.874 417.772 557.167 418.151 557.546 418.445C557.799 418.642 558.084 418.798 558.391 418.908L564.3 420.99C564.629 421.106 564.977 421.167 565.329 421.169C565.821 421.17 566.306 421.053 566.737 420.83C567.357 420.514 567.835 420.001 568.087 419.382L580.809 387.979L582.782 383.105C586.077 383.832 613.723 389.581 622.98 380.313C624.809 378.452 625.853 376.026 625.915 373.492C625.98 371.749 625.779 370.006 625.319 368.316Z" fill="#2F2E41"/>
<path d="M624.592 313.953C624.487 313.835 624.376 313.718 624.258 313.607C622.513 311.882 620.358 310.57 617.97 309.778C615.583 308.987 613.029 308.738 610.52 309.054C608.331 309.324 606.162 309.725 604.027 310.255C601.27 310.922 598.746 312.254 596.703 314.119C595.112 315.57 593.859 317.316 593.023 319.247C592.187 321.177 591.787 323.25 591.848 325.334C591.875 326.178 591.881 327.041 591.868 327.916C591.868 328.323 591.862 328.736 591.855 329.149H598.315C598.595 329.148 598.874 329.179 599.147 329.241C599.935 329.418 600.637 329.84 601.14 330.438C601.642 331.036 601.916 331.775 601.918 332.538V361.204C602.357 361.322 602.796 361.439 603.228 361.562C603.366 361.605 603.497 361.642 603.628 361.679C603.778 361.722 603.929 361.765 604.073 361.808C605.403 362.197 606.702 362.607 607.971 363.041H610.107C610.505 363.041 610.889 363.178 611.188 363.425C611.487 363.672 611.68 364.013 611.732 364.384C612.177 364.55 612.61 364.717 613.035 364.883C614.549 365.475 615.983 366.066 617.3 366.639C619.076 367.404 620.655 368.131 621.978 368.765C622.394 368.965 622.854 369.07 623.321 369.074C623.934 369.072 624.531 368.886 625.025 368.544C625.127 368.473 625.225 368.396 625.319 368.316C625.67 368.006 625.935 367.621 626.091 367.194C626.248 366.767 626.291 366.31 626.217 365.863C625.54 361.022 625.343 356.133 625.627 351.259C625.81 347.161 626.204 342.958 626.715 338.897C626.99 336.697 627.298 334.54 627.619 332.464C627.927 330.48 628.254 328.575 628.575 326.776C628.996 324.494 628.856 322.152 628.166 319.929C627.475 317.707 626.253 315.662 624.592 313.953Z" fill="#80967E"/>
<path d="M597.738 314.458C597.402 314.322 597.056 314.209 596.703 314.119C594.957 313.677 593.101 313.84 591.472 314.579C589.843 315.317 588.552 316.582 587.833 318.143L583.332 327.916L582.768 329.149H598.315C598.595 329.148 598.874 329.179 599.147 329.241L599.671 328.101L601.662 323.775C602.453 322.05 602.485 320.1 601.749 318.353C601.013 316.606 599.571 315.206 597.738 314.458Z" fill="#80967E"/>
<path d="M611.716 304.242C620.603 304.242 627.807 297.466 627.807 289.107C627.807 280.748 620.603 273.972 611.716 273.972C602.829 273.972 595.625 280.748 595.625 289.107C595.625 297.466 602.829 304.242 611.716 304.242Z" fill="#FFB8B8"/>
<path d="M595.336 281.671C602.957 286.047 611.55 288.71 620.444 289.453L617.798 286.47C619.725 287.14 621.753 287.519 623.806 287.592C625.856 287.562 628.005 286.819 629.169 285.231C629.688 284.441 629.996 283.545 630.068 282.619C630.139 281.693 629.971 280.765 629.579 279.913C628.772 278.214 627.517 276.737 625.932 275.624C623.123 273.534 619.808 272.13 616.282 271.537C612.756 270.945 609.129 271.181 605.725 272.227C603.389 272.884 601.298 274.146 599.689 275.869C598.164 277.639 595.227 279.216 596.008 281.372L595.336 281.671Z" fill="#2F2E41"/>
<path d="M614.422 269.457C609.347 264.616 603.205 260.88 596.43 258.513C592.08 256.997 587.347 256.061 582.8 256.922C578.253 257.782 573.953 260.741 572.684 264.937C571.647 268.369 572.718 272.063 574.328 275.293C575.937 278.524 578.087 281.519 579.388 284.869C580.717 288.288 581.116 291.965 580.55 295.566C579.985 299.167 578.472 302.578 576.149 305.489C573.827 308.401 570.768 310.72 567.251 312.238C563.733 313.755 559.868 314.422 556.007 314.178C560.475 314.742 564.593 316.717 568.96 317.768C573.327 318.819 578.481 318.748 581.726 315.805C585.159 312.692 585.228 307.629 585.062 303.146C584.815 296.482 584.569 289.817 584.322 283.153C584.196 279.754 584.088 276.247 585.392 273.074C586.695 269.902 589.792 267.124 593.407 267.153C596.147 267.175 598.572 268.736 600.77 270.276C602.967 271.816 605.293 273.459 608.022 273.688C610.752 273.917 613.868 272.017 613.664 269.447L614.422 269.457Z" fill="#2F2E41"/>
<path d="M627.619 332.464L618.434 332.698L617.766 338.768L617.615 340.173L603.228 346.249L601.918 346.803V357.606L603.228 357.254L607.369 356.145H607.388L625.627 351.259L625.837 351.203C627.31 350.803 628.608 349.966 629.535 348.817C630.463 347.668 630.972 346.268 630.986 344.825L631.032 337.659L631.071 332.378L627.619 332.464Z" fill="#FFB8B8"/>
<path d="M630.606 320.46C630.484 318.584 629.574 316.83 628.077 315.585C626.58 314.34 624.618 313.705 622.623 313.82C620.629 313.935 618.765 314.791 617.441 316.199C616.117 317.607 615.442 319.453 615.564 321.329L616.567 336.71C616.594 337.114 616.715 337.509 616.922 337.864C617.13 338.22 617.417 338.528 617.766 338.768C618.319 339.156 619.002 339.346 619.692 339.304L626.715 338.897L628.844 338.774C629.232 338.756 629.612 338.664 629.961 338.504C630.31 338.345 630.621 338.12 630.875 337.843C630.931 337.785 630.984 337.723 631.032 337.659C631.448 337.134 631.653 336.488 631.608 335.835L630.606 320.46Z" fill="#80967E"/>
<path d="M604.073 361.808H603.228V361.728C602.796 361.784 602.357 361.839 601.918 361.901V363.041H607.971C606.7 362.609 605.401 362.199 604.073 361.808ZM604.073 361.808H603.228V361.728C602.796 361.784 602.357 361.839 601.918 361.901V363.041H607.971C606.7 362.609 605.401 362.199 604.073 361.808ZM610.107 361.808H603.228V332.538C603.226 331.536 602.878 330.561 602.236 329.761C601.595 328.961 600.694 328.379 599.671 328.101C599.231 327.976 598.774 327.914 598.315 327.916H540.008C538.705 327.918 537.456 328.405 536.535 329.271C535.614 330.138 535.096 331.313 535.094 332.538V362.733C535.095 363.958 535.613 365.134 536.534 366C537.455 366.867 538.705 367.354 540.008 367.354H610.107C610.833 367.353 611.533 367.101 612.073 366.645C612.613 366.189 612.956 365.562 613.035 364.883C613.049 364.783 613.055 364.682 613.055 364.581C613.054 363.846 612.743 363.142 612.19 362.622C611.638 362.102 610.889 361.809 610.107 361.808ZM611.745 364.581C611.745 364.99 611.572 365.382 611.265 365.671C610.958 365.959 610.541 366.122 610.107 366.122H540.008C539.053 366.121 538.136 365.764 537.461 365.129C536.785 364.493 536.405 363.631 536.405 362.733V332.538C536.405 331.639 536.785 330.777 537.461 330.142C538.136 329.506 539.053 329.149 540.008 329.149H598.315C598.595 329.148 598.874 329.179 599.147 329.241C599.935 329.418 600.637 329.84 601.14 330.438C601.642 331.036 601.916 331.775 601.918 332.538V363.041H610.107C610.505 363.041 610.889 363.178 611.188 363.425C611.487 363.672 611.68 364.013 611.732 364.384C611.738 364.452 611.745 364.514 611.745 364.581ZM604.073 361.808H603.228V361.728C602.796 361.784 602.357 361.839 601.918 361.901V363.041H607.971C606.7 362.609 605.401 362.199 604.073 361.808Z" fill="#80967E" fill-opacity="0.5"/>
<path d="M569.159 351.333C571.33 351.333 573.09 349.678 573.09 347.636C573.09 345.594 571.33 343.939 569.159 343.939C566.988 343.939 565.229 345.594 565.229 347.636C565.229 349.678 566.988 351.333 569.159 351.333Z" fill="#CCCCCC"/>
<path d="M218.063 43.9785C218.048 44.2601 218.057 44.5423 218.09 44.8225L197.518 61.0624L191.383 58.9731L186.82 67.2697L200.233 73.275L222.724 49.5359C223.859 49.7296 225.031 49.5936 226.082 49.1459C227.134 48.6982 228.016 47.96 228.61 47.0295C229.205 46.0989 229.484 45.0202 229.411 43.9367C229.338 42.8533 228.916 41.8164 228.201 40.964C227.486 40.1116 226.512 39.4842 225.409 39.165C224.306 38.8459 223.126 38.8503 222.025 39.1775C220.924 39.5047 219.956 40.1394 219.248 40.997C218.54 41.8546 218.127 42.8945 218.063 43.9785L218.063 43.9785Z" fill="#FFB8B8"/>
<path d="M190.472 71.2493L170.606 64.5045C168.782 63.8853 167.294 62.61 166.47 60.9591C165.646 59.3083 165.553 57.417 166.211 55.7016C166.87 53.9861 168.226 52.5868 169.981 51.8116C171.736 51.0364 173.746 50.9488 175.57 51.568L195.436 58.3128C195.737 58.4149 196.014 58.5719 196.25 58.7746C196.487 58.9773 196.679 59.2219 196.815 59.4944C196.951 59.7668 197.028 60.0618 197.043 60.3625C197.058 60.6632 197.01 60.9637 196.901 61.2468L193.592 69.8714C193.371 70.4427 192.919 70.9086 192.335 71.1669C191.75 71.4252 191.08 71.4548 190.472 71.2493V71.2493Z" fill="#CCCCCC"/>
<path d="M175.923 136.957L182.562 136.956L185.72 112.868L175.921 112.869L175.923 136.957Z" fill="#FFB8B8"/>
<path d="M195.366 142.755L174.5 142.755L174.5 135.172L187.304 135.172C189.442 135.172 191.493 135.97 193.005 137.393C194.517 138.815 195.366 140.743 195.366 142.755L195.366 142.755Z" fill="#2F2E41"/>
<path d="M159.514 128.889L164.945 132.481L182.259 114.485L174.244 109.185L159.514 128.889Z" fill="#FFB8B8"/>
<path d="M171.219 142.92L154.149 131.631L158.786 125.428L169.261 132.355C171.01 133.512 172.199 135.274 172.566 137.256C172.933 139.237 172.449 141.274 171.219 142.92L171.219 142.92Z" fill="#2F2E41"/>
<path d="M190.45 93.5648C190.45 93.5648 207.019 91.7261 204.045 101.839C201.071 111.952 167.934 120.686 167.934 120.686L190.45 93.5648Z" fill="#FFB8B8"/>
<path d="M179.046 41.9627C186.392 41.9627 192.347 36.3613 192.347 29.4516C192.347 22.5419 186.392 16.9405 179.046 16.9405C171.7 16.9405 165.745 22.5419 165.745 29.4516C165.745 36.3613 171.7 41.9627 179.046 41.9627Z" fill="#FFB8B8"/>
<path d="M136.628 118.616C129.059 110.326 126.411 97.6037 138.481 87.0224C141.462 84.4734 144.837 82.365 148.491 80.7695L158.219 55.1806C159.229 52.5085 161.082 50.1898 163.53 48.5337C165.977 46.8775 168.904 45.9629 171.918 45.9117C174.846 45.7928 177.74 46.5292 180.204 48.0198C182.668 49.5104 184.581 51.6821 185.681 54.2365C186.869 56.8352 187.005 59.753 186.063 62.4394C183.167 70.9219 179.364 79.1062 174.712 86.8667L175.215 90.6518L199.804 92.7073L199.574 93.058C199.455 93.2411 187.421 110.487 172.026 121.934C166.762 125.848 161.319 127.471 156.182 127.47C148.392 127.47 141.306 123.739 136.628 118.616Z" fill="#CCCCCC"/>
<path d="M134.307 33.3767C136.661 30.7391 137.67 27.2893 138.482 23.9318C139.767 18.6195 140.761 13.1264 143.615 8.38569C146.469 3.64509 151.714 -0.282981 157.498 0.0160163C163.248 0.313307 167.897 4.66488 170.365 9.6161C170.962 9.3978 171.602 9.3 172.242 9.32904C172.883 9.35808 173.509 9.51331 174.082 9.78467C175.86 10.7008 176.525 13.3047 175.045 14.6082C176.602 13.9108 178.297 13.5295 180.022 13.4891C181.746 13.4487 183.459 13.75 185.051 14.3736C187.099 15.1934 188.866 16.5284 190.158 18.2319C191.451 19.9353 192.219 21.9412 192.378 24.0287C192.44 24.876 192.317 25.7262 192.015 26.5267C191.713 27.3272 191.24 28.0609 190.625 28.6823C188.073 31.1535 184.463 30.3011 181.254 29.6716C178.222 29.077 174.53 28.9165 172.823 31.6332C172.15 32.7653 171.961 34.0962 172.296 35.3544C172.95 38.0665 175.085 39.9555 177.156 41.7635L177.494 42.3553C170.182 43.6966 162.197 38.9993 160.279 32.228C158.361 25.4568 162.802 17.6451 169.855 15.3862C169.385 15.4 168.92 15.2956 168.508 15.0839C168.096 14.8721 167.752 14.5608 167.51 14.1819C167.269 13.803 167.139 13.3704 167.135 12.9287C167.131 12.487 167.253 12.0523 167.487 11.6695C165.535 10.6408 163.325 10.1224 161.088 10.1679C157.446 10.3927 154.293 12.8318 152.397 15.7663C150.501 18.7008 149.643 22.1069 148.773 25.4418C147.904 28.7768 146.963 32.1756 144.936 35.0315C143.532 37.0095 141.656 38.6514 139.457 39.8263C137.259 41.0012 134.799 41.6765 132.273 41.7984C129.748 41.9202 127.228 41.4852 124.913 40.528C122.598 39.5709 120.553 38.1181 118.942 36.2856C121.489 37.4474 124.371 37.7919 127.146 37.2666C129.921 36.7412 132.436 35.3748 134.307 33.3767Z" fill="#2F2E41"/>
<path d="M232.001 67.4724C242.679 67.4724 251.335 59.3303 251.335 49.2866C251.335 39.2428 242.679 31.1007 232.001 31.1007C221.323 31.1007 212.667 39.2428 212.667 49.2866C212.667 59.3303 221.323 67.4724 232.001 67.4724Z" fill="#80967E"/>
<path d="M231.407 59.5142C231.328 59.4408 231.266 59.3537 231.224 59.2577C231.182 59.1618 231.16 59.0589 231.16 58.9551V38.8274C231.16 38.6177 231.249 38.4166 231.407 38.2683C231.564 38.1201 231.778 38.0368 232.001 38.0368C232.224 38.0368 232.438 38.1201 232.595 38.2683C232.753 38.4166 232.841 38.6177 232.841 38.8274V58.9551C232.841 59.1114 232.792 59.2643 232.7 59.3943C232.607 59.5243 232.476 59.6256 232.323 59.6855C232.169 59.7453 232 59.761 231.837 59.7305C231.674 59.7 231.524 59.6247 231.407 59.5142H231.407Z" fill="white"/>
<path d="M220.707 49.4504C220.59 49.3398 220.51 49.1989 220.477 49.0455C220.445 48.8922 220.462 48.7332 220.525 48.5887C220.589 48.4443 220.697 48.3208 220.835 48.2339C220.973 48.147 221.135 48.1007 221.302 48.1006H242.7C242.923 48.1006 243.137 48.184 243.295 48.3322C243.452 48.4805 243.541 48.6816 243.541 48.8913C243.541 49.1009 243.452 49.302 243.295 49.4503C243.137 49.5986 242.923 49.6819 242.7 49.6819H221.302C221.191 49.682 221.082 49.6617 220.98 49.6219C220.878 49.5822 220.785 49.5239 220.707 49.4504Z" fill="white"/>
<path d="M218.73 61.4505C218.589 61.6995 218.47 61.9585 218.373 62.2252L192.413 68.7005L187.804 64.3566L179.925 70.0424L189.352 80.8407L220.437 68.3442C221.378 68.9736 222.499 69.3188 223.654 69.3339C224.808 69.3491 225.939 69.0333 226.898 68.4288C227.857 67.8242 228.597 66.9594 229.02 65.9494C229.444 64.9395 229.53 63.8322 229.268 62.7749C229.007 61.7175 228.409 60.7602 227.554 60.0303C226.7 59.3004 225.629 58.8324 224.485 58.6887C223.341 58.5449 222.178 58.7321 221.15 59.2255C220.122 59.7188 219.277 60.4949 218.73 61.4505L218.73 61.4505Z" fill="#FFB8B8"/>
<path d="M181.432 75.1045L166.497 61.057C165.817 60.4189 165.276 59.6607 164.907 58.8259C164.538 57.9911 164.348 57.0961 164.347 56.192C164.346 55.288 164.535 54.3926 164.902 53.5573C165.27 52.7219 165.809 51.9628 166.489 51.3236C167.168 50.6843 167.975 50.1774 168.863 49.8318C169.751 49.4862 170.703 49.3087 171.664 49.3095C172.625 49.3102 173.577 49.4892 174.465 49.8363C175.352 50.1833 176.158 50.6916 176.837 51.3319L191.771 65.3794C191.997 65.5922 192.177 65.8449 192.299 66.123C192.422 66.401 192.485 66.6991 192.485 67.0001C192.485 67.3011 192.422 67.5992 192.299 67.8772C192.177 68.1553 191.997 68.408 191.771 68.6208L184.878 75.1046C184.421 75.5337 183.801 75.7746 183.155 75.7746C182.509 75.7746 181.889 75.5337 181.432 75.1046V75.1045Z" fill="#CCCCCC"/>
</g>
<defs>
<clipPath id="clip0">
<rect width="647" height="440" fill="white"/>
</clipPath>
</defs>
</svg>
