<svg width="160" height="160" viewBox="0 0 160 160" fill="none" xmlns="http://www.w3.org/2000/svg">
<g clip-path="url(#clip0)">
<path d="M136.686 23.2513C121.645 8.26621 101.645 0.00914274 80.3366 0C36.427 0 0.693455 35.565 0.675875 79.2794C0.670759 93.2529 4.33798 106.893 11.3084 118.917L0.00708008 160L42.2362 148.976C53.8711 155.293 66.9712 158.622 80.3024 158.627H80.3363H80.3366C124.239 158.627 159.978 123.056 159.997 79.3437C160.004 58.1576 151.725 38.2374 136.686 23.2513ZM80.3366 145.237H80.3108C68.4281 145.23 56.7754 142.054 46.6115 136.05L44.1927 134.622L19.1331 141.163L25.8237 116.847L24.2477 114.354C17.6194 103.861 14.1203 91.7355 14.1252 79.2845C14.1398 42.9505 43.8402 13.3911 80.3617 13.3911C98.0474 13.3984 114.67 20.2617 127.171 32.7169C139.672 45.1719 146.551 61.7292 146.546 79.3381C146.531 115.673 116.829 145.237 80.3366 145.237Z" fill="#E0E0E0"/>
<path d="M3.20007 155.441L13.9852 116.235C7.33144 104.76 3.8324 91.7423 3.8366 78.4097C3.85404 36.6929 37.9556 2.75354 79.8558 2.75354C100.192 2.76268 119.279 10.6422 133.629 24.9431C147.983 39.2439 155.883 58.2528 155.875 78.4688C155.857 120.187 121.754 154.129 79.8589 154.129C79.8558 154.129 79.861 154.129 79.8589 154.129H79.825C67.1028 154.125 54.6021 150.945 43.4994 144.921L3.20007 155.441Z" fill="url(#paint0_linear)"/>
<path fill-rule="evenodd" clip-rule="evenodd" d="M60.6497 45.6215C59.176 42.3592 57.6243 42.2939 56.2222 42.2368C55.0753 42.1879 53.7624 42.1909 52.4516 42.1909C51.1397 42.1909 49.0079 42.6817 47.2051 44.6419C45.4013 46.6021 40.3177 51.3408 40.3177 60.9784C40.3177 70.6171 47.3691 79.9303 48.3519 81.2383C49.3359 82.5444 61.9637 102.954 81.9626 110.806C98.5834 117.332 101.966 116.034 105.573 115.707C109.181 115.381 117.214 110.97 118.854 106.395C120.494 101.822 120.494 97.9014 120.002 97.0819C119.51 96.2656 118.198 95.7758 116.23 94.7962C114.262 93.8166 104.589 89.0769 102.786 88.4239C100.982 87.7708 99.6699 87.4443 98.3581 89.4055C97.0462 91.3647 93.2776 95.7758 92.1297 97.0819C90.9818 98.391 89.8339 98.5543 87.8661 97.5747C85.8982 96.5921 79.5612 94.5257 72.0436 87.8523C66.1945 82.6605 62.2455 76.2483 61.0976 74.2872C59.9497 72.3281 60.9746 71.2669 61.9616 70.2903C62.845 69.4127 63.9294 68.0036 64.9133 66.8597C65.8951 65.7158 66.2231 64.8995 66.8791 63.5934C67.535 62.2852 67.207 61.1414 66.7151 60.1618C66.2231 59.1822 62.3993 49.4949 60.6497 45.6215Z" fill="white"/>
<path d="M136.033 22.9995C121.165 8.1864 101.395 0.024288 80.331 0.0150146C36.9253 0.0150146 1.60197 35.1717 1.58452 78.3843C1.5794 92.1976 5.20451 105.681 12.0949 117.567L0.923462 158.178L42.6678 147.28C54.1693 153.525 67.119 156.816 80.2972 156.821H80.3306H80.331C123.73 156.821 159.058 121.658 159.076 78.4476C159.084 57.5051 150.9 37.8136 136.033 22.9995ZM80.331 143.585H80.3054C68.559 143.578 57.0401 140.439 46.9929 134.503L44.6018 133.092L19.8298 139.558L26.4436 115.521L24.8857 113.056C18.3335 102.684 14.8745 90.6975 14.8796 78.3896C14.8939 42.4727 44.2533 13.2527 80.3557 13.2527C97.8386 13.2598 114.27 20.0444 126.628 32.3565C138.985 44.6687 145.786 61.0357 145.78 78.4427C145.765 114.36 116.405 143.585 80.331 143.585Z" fill="white"/>
</g>
<defs>
<linearGradient id="paint0_linear" x1="79.5376" y1="155.441" x2="79.5376" y2="2.75379" gradientUnits="userSpaceOnUse">
<stop stop-color="#20B038"/>
<stop offset="1" stop-color="#60D66A"/>
</linearGradient>
<clipPath id="clip0">
<rect width="160" height="160" fill="white"/>
</clipPath>
</defs>
</svg>
